# xmcd
#
# Track frame offsets:
#	150
#	14582
#	27818
#	40029
#	55348
#	70364
#	83808
#	96472
#	110284
#	121724
#	133960
#	147066
#	160408
#	174503
#
# Disc length: 2496 seconds
#
# Revision: 0
# Processed by: cddbd v1.5.2PL0 Copyright (c) Steve Scherf et al.
# Submitted via: audiograbber 1.83.01
#
DISCID=bd09be0e
DTITLE=Muddy Waters - The Great Muddy Waters
DYEAR=1994
DGENRE=Blues
TTITLE0=I Feel Like Going Home
TTITLE1=Lousiana Blues
TTITLE2=Long Distance Call
TTITLE3=Honey Bee
TTITLE4=Still A Fool
TTITLE5=She Moves Me
TTITLE6=I'm Your Hoochie Coochie Man
TTITLE7=I'm Ready
TTITLE8=Sugar Sweet
TTITLE9=Trouble No More
TTITLE10=Forty Days and Forty Nights
TTITLE11=Don't Go No Farther
TTITLE12=Close To You
TTITLE13=Got My Mojo Working
EXTD=
EXTT0=
EXTT1=
EXTT2=
EXTT3=
EXTT4=
EXTT5=
EXTT6=
EXTT7=
EXTT8=
EXTT9=
EXTT10=
EXTT11=
EXTT12=
EXTT13=
PLAYORDER=
